<?xml version="1.0" encoding="utf-8"?>
<!-- Generator: Adobe Illustrator 19.2.1, SVG Export Plug-In . SVG Version: 6.00 Build 0)  -->
<svg version="1.1" id="layer" xmlns="http://www.w3.org/2000/svg" xmlns:xlink="http://www.w3.org/1999/xlink" x="0px" y="0px"
	 viewBox="0 0 652 652" style="enable-background:new 0 0 652 652;" xml:space="preserve">
<g id="Symbols">
	<g id="Header" transform="translate(-100.000000, -31.000000)">
		<g id="logo_uni_en" transform="translate(100.000000, 31.000000)">
			<path id="Fill-1" d="M304.5,398.5c0-2.7-0.5-5-0.8-5.9c-2.3-9.7-9.2-12.8-12.9-13.9c-2.8-0.8-5.1-0.8-6.2-0.8
				c-3.4,0-13.4,0.8-18.1,10.7c-2.2,4.3-2.3,8.6-2.3,10.3c0,12.3,7.8,20.8,20.1,20.8c9.7,0,17.2-5.1,19.4-14.7
				C304,403.9,304.5,401.2,304.5,398.5L304.5,398.5z M295,398.4c-0.1,4.9-1.1,11.5-5.5,14.4c-0.8,0.5-2.5,1.5-5,1.5
				c-2.4,0-4.4-0.8-6.2-2.3c-2.7-2.3-3.8-5.6-4.4-9c-0.1-0.7-0.3-2.6-0.3-4.6c0-7.6,2.5-11.8,5.2-13.7c2.2-1.6,4.5-1.8,5.4-1.8
				c1,0,3,0.2,5.1,1.5C295.3,388.1,295,397.3,295,398.4L295,398.4z M313.1,378.8h-6v6.2h6v33.5h9.1V385h7v-6.2h-7v-8
				c0-0.6-0.4-4.7,2.9-5.9c0.9-0.4,1.8-0.4,2.1-0.4c0.8,0,1.5,0.2,1.8,0.4l0.1-6c-0.9,0-6.1-0.4-9.9,1.3c-6.1,2.7-6.1,10.3-6.1,11.7
				c-0.1,0.9-0.1,1.9-0.1,2.7V378.8z M359.6,418.5h17c3.8-0.1,5.5-0.3,7.4-0.8c7-1.7,10.4-6.4,11.6-8.9c1.2-2.5,1.2-4.9,1.2-5.8
				c0-5-2.1-7.6-3.5-9.1c-0.7-0.6-1.4-1.2-2.1-1.9l-3-2.8c3.1-3.4,6.5-6.9,6.5-11.8c0-1.5-0.4-4.5-2.8-7.6
				c-4.3-5.6-10.1-5.8-12.6-5.9c-1.1-0.1-2.2-0.1-3.3,0h-16.3V418.5z M368.9,370.4c1.1-0.6,3.1-1.5,6.2-1.5c4.2,0,8.7,1.9,10.7,5.7
				c0.3,0.5,1,1.9,1,3.6c0,2.9-2.1,5.3-2.6,5.8c-2,2.2-4.8,4.4-4.8,7.4c0,0.9,0.2,1.8,0.7,2.6c0.3,0.5,0.9,1.3,1.9,2.3
				c2.5,2.3,5.7,4.3,5.7,8c0,2.2-0.8,4.3-2.4,5.9c-2.3,2.6-5.6,3.3-8.9,3.3c-3.8,0-6-0.8-7.5-1.3L368.9,370.4z M440.7,378.3
				l-4.9,2.9c-6.8-2.8-9-3.5-13-3.5c-7.6,0-14.8,3.9-18.2,10.8c-2.1,4.2-2.2,8.6-2.2,10.2c0,5.2,1.8,9,2.7,10.8
				c1.3,2.2,2.8,3.7,3.5,4.4c5.1,4.4,11.4,4.3,13.4,4.4c1.4,0.1,2.7,0.1,4,0.1h14.7V378.3z M431.7,411.7c-3.8,1.3-5.4,1.6-7.5,1.6
				c-0.9,0.1-3.4-0.1-5.8-1.2c-5.4-2.5-6.1-8.2-6.3-10c-0.3-1.8-0.3-3.4-0.3-4.2c0-1.3,0-9.8,5.9-13.7c2.3-1.5,4.5-1.7,5.5-1.7
				c5.1,0,7.2,3.5,7.8,5.3c0.6,1.6,0.6,3.5,0.6,4V411.7z M448.7,408.5l-0.1,8.8c2,0.8,5.2,2.2,10.4,2.2c5.9,0,9-1.9,11.1-3.6
				c3.9-3.5,4.2-7.6,4.2-9.7c0-1.4-0.3-5.4-3.7-8.2c-2.2-1.9-5.5-2.9-8.1-3.9c-2.4-0.9-3.6-1.6-4.5-2.5c-0.9-0.8-1.5-2-1.5-3.3
				c0-0.6,0.1-1.9,1.2-3.2c1.8-2.1,5.2-2.2,5.7-2.2c2.7,0,4.9,1.1,7,2.7c0.7,0.5,1.3,0.9,1.9,1.5v-7.8c-3.1-1-5.4-1.6-8.6-1.6
				c-2.1,0-4.1,0.3-4.9,0.5c-2.5,0.5-4.1,1.4-4.9,1.9c-3.4,2.2-5.5,6.3-5.5,10.3c0,1.2,0.2,4.6,2.6,7.1c2.3,2.5,6.5,3.8,7.1,4
				c3.2,1.1,8.1,2.5,8.1,6.8c0,0.5-0.1,1.7-0.9,2.9c-0.8,1.2-2.5,2.8-5.8,2.8c-4.9,0-8.4-3-9.5-4L448.7,408.5z M516.7,398.9
				c-0.1-1.6,0.2-7.1-2.1-11.9c-4.1-8.4-13.1-9.2-15.8-9.2c-2.5,0-9.6,0.6-14.6,6.6c-4.6,5.5-4.9,12.5-4.9,14.7
				c0,9.6,4.9,14.6,8.1,16.7c2.2,1.6,6.5,3.6,13,3.7c5.1,0,8.8-1.2,10.6-1.9c2-0.8,3.7-1.7,4.4-2.1v-7.8c-1.8,1.7-2.4,2.3-3.5,3.1
				c-3.9,2.9-7.5,3.2-9.5,3.2c-3.2,0-6.9-1-9.2-3.3c-2.9-2.8-3.8-7-4-8.1c-0.2-1.4-0.2-2.4-0.3-3.9H516.7z M489.1,393.8
				c0.2-1.2,0.3-2.3,0.7-3.5c0.5-1.5,2.8-7.2,8.7-7.3c0.8,0,2.6,0.2,4.5,1.4c3.5,2.2,4,5.5,4.2,9.3L489.1,393.8z M523.9,418.5h9.1
				v-59.5h-9.1V418.5z"/>
			<path id="Fill-2" d="M312.2,285.6h-9.4v31c0.1,4.8,0,7.3-0.6,9.6c-0.7,2.4-1.9,3.9-2.5,4.7c-1.2,1.4-3.1,3.1-7.1,3.8
				c-1.6,0.3-2.9,0.3-3.5,0.3c-8.1,0-11.4-4.3-12.6-7.5c-0.9-2.5-1.2-5.4-1.1-10.9v-31H266v29c-0.1,6.4,0.2,9.9,1.1,12.7
				c1,3.4,3.2,6.6,6,8.7c2.5,2,7.9,5,16,5c7.3,0,12.5-2.5,14.9-4c5.6-3.7,7.2-9.1,7.8-11.6c0.5-2.6,0.6-5.3,0.5-10.9V285.6z
				 M321.7,300.4v39.7h9.1v-32.8c1.5-0.8,3.2-1.7,6.8-1.7c5.9,0,8.2,2.7,9.1,5.3c0.4,1.2,0.5,2.5,0.6,5.2v24h9.1v-24
				c-0.3-4.5-0.6-8.4-4.2-11.5c-4.4-3.8-10.1-4.2-21.3-4.2H321.7z M367.1,340.1h9.1v-39.7h-9.1V340.1z M366.3,290.5
				c0,3,2.5,5.4,5.4,5.4c3,0,5.5-2.4,5.5-5.4c0-3-2.4-5.5-5.4-5.5C368.7,285,366.3,287.5,366.3,290.5L366.3,290.5z M426.7,300.4
				h-8.2L407.2,332c-0.5,1.7-0.6,2.1-1.8,2.1l-11.9-33.7h-9.9l14.6,39.7h4.7c2.8-0.1,5.1-0.2,7.5-1.7c3.2-2.1,4.8-6,6-9.4
				L426.7,300.4z M465.6,320.5c-0.1-1.5,0.1-7.1-2.1-11.9c-4.1-8.4-13.1-9.2-15.8-9.2c-2.5,0-9.6,0.6-14.6,6.6
				c-4.6,5.5-4.9,12.5-4.9,14.8c0,9.6,4.9,14.6,8.1,16.7c2.1,1.5,6.4,3.6,13,3.7c5.1,0,8.8-1.2,10.6-1.8c2-0.8,3.7-1.7,4.4-2.1v-7.8
				c-1.8,1.7-2.4,2.3-3.5,3.1c-3.9,2.9-7.5,3.2-9.5,3.2c-3.2,0-6.9-1-9.2-3.3c-2.9-2.8-3.8-7-4-8.1c-0.2-1.4-0.2-2.4-0.3-3.9H465.6z
				 M438.1,315.4c0.2-1.2,0.3-2.3,0.7-3.5c0.5-1.5,2.8-7.2,8.7-7.3c0.8,0,2.6,0.1,4.5,1.4c3.4,2.2,4,5.5,4.2,9.3L438.1,315.4z
				 M472.8,300.4v39.7h9.1v-33.7c1.5-0.7,3.1-1.4,6.6-1.2c-0.3,0.5-0.8,1.1-0.8,2.4c0,1.2,0.3,1.9,0.5,2.3c0.8,1.9,2.7,3,4.8,3
				c3.5,0,5.5-2.5,5.5-5.9c0-1.9-0.8-3.1-1.1-3.6c-1.8-2.8-5.4-2.9-8.4-3H472.8z M503.2,330.1l-0.1,8.8c2,0.8,5.2,2.2,10.4,2.2
				c5.9,0,9-1.8,11-3.6c3.9-3.5,4.2-7.6,4.2-9.7c0-1.4-0.3-5.4-3.7-8.2c-2.2-1.9-5.5-2.9-8.1-3.9c-2.4-0.9-3.6-1.6-4.5-2.5
				c-0.9-0.8-1.5-2-1.5-3.3c0-0.6,0.2-1.9,1.2-3.2c1.8-2.1,5.2-2.2,5.8-2.2c2.7,0,4.9,1.1,7,2.7c0.7,0.5,1.3,0.9,1.9,1.5v-7.8
				c-3.1-1-5.4-1.6-8.6-1.6c-2.1,0-4.1,0.3-4.9,0.5c-2.5,0.5-4.1,1.4-4.9,1.9c-3.4,2.2-5.5,6.2-5.5,10.3c0,1.2,0.2,4.6,2.6,7.1
				c2.3,2.5,6.5,3.8,7.1,4c3.2,1.1,8.1,2.5,8.1,6.8c0,0.5-0.1,1.7-0.9,2.9c-0.8,1.2-2.5,2.8-5.8,2.8c-4.9,0-8.4-3-9.5-4L503.2,330.1
				z M537.5,340.1h9.1v-39.7h-9.1V340.1z M536.6,290.5c0,3,2.5,5.4,5.4,5.4c3,0,5.5-2.4,5.5-5.4c0-3-2.4-5.5-5.4-5.5
				C539.1,285,536.6,287.5,536.6,290.5L536.6,290.5z M575.6,300.4h-6.9v-13.6c0-0.9,0.1-2.4-1.2-2.4c-0.3,0-0.9,0.2-1.1,0.3
				c-0.4,0.3-0.5,0.9-0.5,1.9c-0.5,3.6-1.5,7-3.8,9.7c-3.1,3.9-6.5,3.9-8.5,4.1v6.1h6v33.5h9.2v-33.5h6.9V300.4z M621.8,300.4h-8.3
				l-12.4,35.1l-12.4-35.1h-10.1l15,39.6c0.8,0.3,1.2,0.5,1.5,0.8c1.1,0.8,1.6,2.2,1.6,3.5c0,2.5-1.7,3.8-2.5,4.2
				c-2.3,1.2-6.8,0.6-7,0.6l-0.1,7c3.2,0,6.2,0,9.2-1.2c3.7-1.3,5.5-3.8,7.2-7.3c1.2-2.2,2-4.6,2.8-7L621.8,300.4L621.8,300.4z"/>
			<path id="Fill-3" d="M86.5,294.5c0-2.4,3.7-2.4,3.7,0v51.4c0,2.5-3.7,2.5-3.7,0V294.5z M86.5,280.4c0,2.5,3.7,2.5,3.7,0v-58.4
				h-3.7V280.4z M86.5,360c0-2.4,3.8-2.4,3.8,0v58.4h-3.8V360z M153.2,345.9c0,2.5,3.7,2.5,3.7,0v-51.4c0-2.4-3.7-2.4-3.7,0V345.9z
				 M153.2,221.9h3.7v58.4c0,2.5-3.7,2.5-3.7,0V221.9z M153.2,418.5h3.7V360c0-2.4-3.7-2.4-3.7,0V418.5z M147.8,285.6
				c2.5,0,2.5,3.7,0,3.7H95.6c-2.5,0-2.5-3.7,0-3.7H147.8z M95.6,351.1c-2.5,0-2.5,3.7,0,3.7h52.2c2.5,0,2.5-3.7,0-3.7H95.6z
				 M221.6,285.6v3.7h-59.4c-2.5,0-2.5-3.7,0-3.7H221.6z M21.8,285.6v3.7h59.4c2.5,0,2.5-3.7,0-3.7H21.8z M221.6,351.1v3.7h-59.4
				c-2.5,0-2.5-3.7,0-3.7H221.6z M21.8,351.1v3.7h59.4c2.5,0,2.5-3.7,0-3.7H21.8z M119.1,315.1c1.8,1.7-0.9,4.3-2.7,2.6
				c-1.8-1.7-24.3-23.9-24.3-23.9c-1.8-1.7,0.9-4.3,2.7-2.6C96.4,292.7,119.1,315.1,119.1,315.1L119.1,315.1z M94.8,356.7
				c-1.8-1.7-4.4,0.9-2.7,2.6c0,0,22.5,22.2,24.3,23.9c1.8,1.7,4.4-0.9,2.7-2.6C119.1,380.6,96.4,358.2,94.8,356.7L94.8,356.7z
				 M185.8,315.1c1.8,1.7-0.9,4.3-2.7,2.6c-1.8-1.7-24.3-23.9-24.3-23.9c-1.8-1.7,0.9-4.3,2.7-2.6
				C163,292.7,185.8,315.1,185.8,315.1L185.8,315.1z M151.2,293.8c1.8-1.7-0.9-4.3-2.7-2.6c0,0-22.5,22.2-24.3,23.9
				c-1.8,1.7,0.9,4.3,2.7,2.6C127,317.7,149.7,295.3,151.2,293.8L151.2,293.8z M127,383.2c-1.8,1.7-4.4-0.9-2.7-2.6
				c1.8-1.7,24.3-23.9,24.3-23.9c1.8-1.7,4.4,0.9,2.7,2.6C149.7,360.8,127,383.2,127,383.2L127,383.2z M84.7,293.8
				c1.8-1.7-0.9-4.3-2.7-2.6c0,0-22.5,22.2-24.3,23.9c-1.8,1.7,0.9,4.3,2.7,2.6C60.4,317.7,83.2,295.3,84.7,293.8L84.7,293.8z
				 M119.1,325.4c1.8-1.7-0.9-4.3-2.7-2.6c-1.8,1.7-24.3,23.9-24.3,23.9c-1.8,1.7,0.9,4.3,2.7,2.6
				C96.4,347.7,119.1,325.4,119.1,325.4L119.1,325.4z M94.8,283.7c-1.8,1.7-4.4-0.9-2.7-2.6c0,0,22.5-22.2,24.3-23.9
				c1.8-1.7,4.4,0.9,2.7,2.6C119.1,259.8,96.4,282.2,94.8,283.7L94.8,283.7z M185.8,325.4c1.8-1.7-0.9-4.3-2.7-2.6
				c-1.8,1.7-24.3,23.9-24.3,23.9c-1.8,1.7,0.9,4.3,2.7,2.6C163,347.7,185.8,325.4,185.8,325.4L185.8,325.4z M151.2,346.6
				c1.8,1.7-0.9,4.4-2.7,2.6c0,0-22.5-22.2-24.3-23.9c-1.8-1.7,0.9-4.3,2.7-2.6C127,322.7,149.7,345.1,151.2,346.6L151.2,346.6z
				 M127,257.2c-1.8-1.7-4.4,0.9-2.7,2.6c1.8,1.7,24.3,23.9,24.3,23.9c1.8,1.7,4.4-0.9,2.7-2.6C149.7,279.6,127,257.2,127,257.2
				L127,257.2z M84.4,346.4c1.8,1.7-0.9,4.3-2.7,2.6c0,0-22.5-22.2-24.3-23.9c-1.8-1.7,0.9-4.3,2.7-2.6
				C60.1,322.5,82.9,344.9,84.4,346.4L84.4,346.4z M206.3,400.8l-2.7,2.6l-44.9-44.1c-1.8-1.7,0.9-4.3,2.7-2.6
				C163,358.1,206.3,400.8,206.3,400.8L206.3,400.8z M82,356.6c1.8-1.7,4.4,0.9,2.7,2.6l-44.9,44.1l-2.6-2.6
				C37.1,400.8,80.5,358.1,82,356.6L82,356.6z M203.7,237l2.7,2.6l-44.9,44.1c-1.8,1.7-4.4-0.9-2.7-2.6
				C160.3,279.6,203.7,237,203.7,237L203.7,237z M84.7,281.2c1.8,1.7-0.9,4.3-2.7,2.6l-44.9-44.1l2.7-2.6
				C39.8,237,83.1,279.7,84.7,281.2L84.7,281.2z M206.3,335.3l-2.7,2.6l-12.7-12.5c-1.8-1.7,0.9-4.3,2.6-2.6
				C195.1,324.2,206.3,335.3,206.3,335.3L206.3,335.3z M190.9,315c-1.8,1.7,0.9,4.3,2.7,2.6l12.7-12.5l-2.7-2.6
				C203.6,302.5,192.4,313.5,190.9,315L190.9,315z M137,237l2.7,2.6L127,252.1c-1.8,1.7-4.4-0.9-2.7-2.6C125.8,248,137,237,137,237
				L137,237z M116.5,252.1c1.8,1.7,4.4-0.9,2.7-2.6L106.4,237l-2.7,2.6C103.8,239.6,115,250.6,116.5,252.1L116.5,252.1z M37.1,335.3
				l2.7,2.6l12.7-12.5c1.8-1.7-0.9-4.3-2.7-2.6C48.4,324.3,37.1,335.3,37.1,335.3L37.1,335.3z M52.5,315.1c1.8,1.7-0.9,4.3-2.6,2.6
				l-12.7-12.5l2.6-2.6C39.8,302.5,51,313.6,52.5,315.1L52.5,315.1z M106.4,403.4l-2.7-2.6l12.7-12.5c1.8-1.7,4.4,0.9,2.7,2.6
				C117.6,392.4,106.4,403.4,106.4,403.4L106.4,403.4z M127,388.2c-1.8-1.7-4.4,0.9-2.7,2.6l12.7,12.5l2.6-2.6
				C139.7,400.8,128.5,389.7,127,388.2L127,388.2z"/>
		</g>
	</g>
</g>
</svg>
